<svg fill="#f9e813" xmlns="http://www.w3.org/2000/svg"  viewBox="0 0 100 100" width="200px" height="200px"><path d="M 42 13 C 30.966513 13 22 21.966513 22 33 L 22 36 L 22 36.5 L 22 37 L 22 38.183594 C 20.838749 38.597861 20 39.698391 20 41 L 20 50 C 20 50.93 20.425797 51.763453 21.091797 52.314453 C 19.195797 54.092453 16 57.788 16 62.5 C 16 67.161 18.750406 70.670062 20.316406 72.289062 C 20.105406 73.190062 20 74.1 20 75 C 20 81.617 26.505 87 34.5 87 C 39.437 87 42.062906 85.403094 44.378906 83.996094 C 44.769125 83.759072 45.144962 83.547302 45.523438 83.333984 C 45.890322 83.739435 46.414552 84 47 84 C 47.631324 84 48.13255 83.662939 48.5 83.201172 C 48.86745 83.662939 49.368676 84 50 84 C 50.59885 84 51.132388 83.72636 51.5 83.304688 C 51.867612 83.726742 52.40115 84 53 84 C 53.582458 84 54.094496 83.737337 54.453125 83.332031 C 54.83646 83.545027 55.216484 83.756263 55.611328 83.996094 C 57.927328 85.403094 60.553234 87 65.490234 87 C 73.485234 87 79.990234 81.617 79.990234 75 C 79.990234 74.098 79.884828 73.189062 79.673828 72.289062 C 81.239828 70.670063 83.990234 67.161 83.990234 62.5 C 83.990234 57.788 80.794437 54.092453 78.898438 52.314453 C 79.564437 51.763453 79.990234 50.93 79.990234 50 L 79.990234 41 C 79.990234 39.702069 79.156118 38.604519 78 38.1875 L 78 37 L 78 36 L 78 33 C 78 21.966513 69.033487 13 58 13 L 42 13 z M 42 15 L 58 15 C 67.952513 15 76 23.047487 76 33 L 76 36 L 24 36 L 24 33 C 24 23.047487 32.047487 15 42 15 z M 42 18 C 36.573392 18 31.824246 20.908819 29.197266 25.240234 A 0.50005 0.50005 0 1 0 30.050781 25.759766 C 32.503801 21.715181 36.930608 19 42 19 L 53.5 19 A 0.50005 0.50005 0 1 0 53.5 18 L 42 18 z M 62.509766 18.724609 A 0.50005 0.50005 0 0 0 62.458984 18.726562 A 0.50005 0.50005 0 0 0 62.34375 19.703125 C 64.339513 20.357759 66.13922 21.444071 67.626953 22.861328 A 0.50005 0.50005 0 1 0 68.316406 22.138672 C 66.72214 20.619929 64.794487 19.45332 62.65625 18.751953 A 0.50005 0.50005 0 0 0 62.509766 18.724609 z M 69.691406 23.994141 A 0.50005 0.50005 0 0 0 69.3125 24.794922 C 69.536491 25.10279 69.74575 25.425217 69.949219 25.759766 A 0.50005 0.50005 0 1 0 70.802734 25.240234 C 70.590203 24.890783 70.367103 24.54321 70.121094 24.205078 A 0.50005 0.50005 0 0 0 69.691406 23.994141 z M 23 37 L 24 37 L 76 37 L 77 37 L 77 38.001953 C 76.996624 38.001942 76.993613 38 76.990234 38 L 76.990234 39 L 23 39 L 23 37 z M 23 40 L 24.019531 40 C 24.120671 45.025357 25.682626 48.295969 27.753906 50.277344 C 29.8954 52.325884 32.51831 53 34.5 53 C 38.729417 53 41.756753 50.130096 45.410156 47.492188 C 46.748307 46.525745 48.35047 46 49.998047 46 L 50.001953 46 C 51.65059 46 53.251603 46.52568 54.589844 47.492188 C 58.243253 50.130096 61.270583 53 65.5 53 C 67.48169 53 70.1046 52.325884 72.246094 50.277344 C 74.317374 48.295969 75.879329 45.025357 75.980469 40 L 76.990234 40 C 77.541234 40 77.990234 40.449 77.990234 41 L 77.990234 50 C 77.990234 50.551 77.541234 51 76.990234 51 L 76.820312 51 C 76.42198 51 76.057786 51.238877 75.900391 51.605469 L 70.273438 64.734375 C 70.199138 64.683588 70.126629 64.631124 70.052734 64.580078 C 69.679921 64.321545 69.304355 64.064569 68.941406 63.800781 C 68.846968 63.732253 68.755882 63.662597 68.662109 63.59375 C 68.212101 63.262988 67.769385 62.929743 67.333984 62.59375 C 66.947765 62.295567 66.588001 61.993716 66.212891 61.693359 C 65.481089 61.107896 64.749386 60.522553 64.056641 59.939453 C 63.344003 59.339697 62.706715 58.800168 62.03125 58.220703 C 61.631757 57.878835 61.21126 57.520051 60.824219 57.189453 C 60.534095 56.943539 60.256958 56.710849 59.974609 56.472656 C 59.747458 56.281071 59.481249 56.050729 59.257812 55.865234 C 59.153619 55.778734 59.056559 55.710156 58.953125 55.625 C 58.56855 55.308001 58.186305 54.990863 57.810547 54.697266 L 57.808594 54.695312 C 57.651072 54.571133 57.499727 54.46688 57.34375 54.347656 C 56.232527 53.495709 55.147945 52.747358 54.091797 52.185547 C 53.987352 52.129403 53.883466 52.076034 53.779297 52.023438 C 53.589789 51.928655 53.399512 51.832677 53.210938 51.75 C 52.929985 51.625884 52.650526 51.516567 52.371094 51.421875 C 52.229009 51.373903 52.087165 51.338895 51.945312 51.298828 C 51.836058 51.267956 51.726276 51.229016 51.617188 51.203125 C 51.537754 51.184061 51.456791 51.174874 51.376953 51.158203 C 51.239003 51.129959 51.100833 51.102106 50.962891 51.082031 C 50.644295 51.033871 50.323871 51 50 51 C 49.676129 51 49.355705 51.033871 49.037109 51.082031 C 48.899167 51.102106 48.760997 51.129959 48.623047 51.158203 C 48.543209 51.174874 48.462246 51.184061 48.382812 51.203125 C 48.273642 51.229036 48.164015 51.267919 48.054688 51.298828 C 47.912835 51.338895 47.770991 51.373903 47.628906 51.421875 C 47.356332 51.514327 47.084552 51.621682 46.810547 51.742188 C 46.596131 51.835674 46.379693 51.94362 46.164062 52.052734 C 46.091163 52.090017 46.01835 52.127001 45.945312 52.166016 C 44.873425 52.732225 43.77303 53.491611 42.644531 54.357422 C 42.491766 54.474306 42.343717 54.575635 42.189453 54.697266 C 41.813695 54.990863 41.43145 55.308001 41.046875 55.625 C 40.943441 55.710156 40.846381 55.778734 40.742188 55.865234 C 40.518751 56.050729 40.252542 56.281071 40.025391 56.472656 C 39.743042 56.710849 39.465905 56.943539 39.175781 57.189453 C 38.78874 57.520051 38.368243 57.878835 37.96875 58.220703 C 37.211888 58.869995 36.503086 59.472984 35.699219 60.146484 C 35.545654 60.275274 35.389768 60.40404 35.234375 60.533203 C 34.380501 61.241891 33.499909 61.954605 32.585938 62.658203 C 32.322338 62.861286 32.052225 63.062596 31.783203 63.263672 C 31.493144 63.480447 31.206683 63.698316 30.910156 63.912109 C 30.520517 64.192767 30.120157 64.466756 29.71875 64.740234 L 24.089844 51.605469 C 23.932448 51.238877 23.568255 51 23.169922 51 L 23 51 C 22.449 51 22 50.551 22 50 L 22 41 C 22 40.449 22.449 40 23 40 z M 25.039062 40 L 27.037109 40 C 27.074779 41.998763 27.314457 43.899183 28.195312 45.371094 C 29.151933 46.969607 30.876767 48 33.5 48 C 35.675333 48 38.695173 46.912524 41.376953 45.353516 C 43.901628 43.885838 46.080112 42.022864 46.810547 40 L 53.189453 40 C 53.919888 42.022864 56.098372 43.885838 58.623047 45.353516 C 61.304827 46.912524 64.324667 48 66.5 48 C 69.123233 48 70.848067 46.969607 71.804688 45.371094 C 72.685543 43.899183 72.925221 41.998763 72.962891 40 L 74.960938 40 C 74.856819 44.796372 73.410155 47.779758 71.554688 49.554688 C 69.629931 51.395896 67.25331 52 65.5 52 C 61.729417 52 58.888425 49.363733 55.173828 46.681641 C 53.668069 45.594148 51.863316 45 50.001953 45 L 49.998047 45 C 48.137623 45 46.332021 45.594083 44.826172 46.681641 C 41.111569 49.363733 38.270583 52 34.5 52 C 32.74669 52 30.370068 51.395896 28.445312 49.554688 C 26.589845 47.779758 25.143182 44.796372 25.039062 40 z M 28.039062 40 L 45.589844 40 C 44.866206 41.496141 43.132328 43.176839 40.873047 44.490234 C 38.304827 45.983226 35.324667 47 33.5 47 C 31.123233 47 29.848067 46.183158 29.054688 44.857422 C 28.328035 43.643185 28.080983 41.902546 28.039062 40 z M 54.410156 40 L 71.960938 40 C 71.919017 41.902546 71.671965 43.643185 70.945312 44.857422 C 70.151933 46.183158 68.876767 47 66.5 47 C 64.675333 47 61.695173 45.983226 59.126953 44.490234 C 56.867672 43.176839 55.133794 41.496141 54.410156 40 z M 50 52 C 50.288424 52 50.582089 52.031437 50.878906 52.080078 C 50.919153 52.086604 50.959625 52.096176 51 52.103516 L 51 57.060547 C 50.668359 57.034883 50.339383 57 50 57 C 49.660617 57 49.331591 57.034607 49 57.060547 L 49 52.103516 C 49.040368 52.096179 49.080852 52.086602 49.121094 52.080078 C 49.417911 52.031437 49.711576 52 50 52 z M 48 52.363281 L 48 57.169922 C 47.322765 57.267502 46.657083 57.415922 46 57.607422 L 46 53.283203 C 46.688876 52.890373 47.354445 52.581933 48 52.363281 z M 52 52.363281 C 52.645555 52.581933 53.311124 52.890373 54 53.283203 L 54 57.617188 C 53.342736 57.422668 52.678181 57.270655 52 57.169922 L 52 52.363281 z M 23.535156 52.851562 L 28.837891 65.222656 C 28.65189 65.294572 28.486895 65.355485 28.277344 65.441406 C 27.886886 65.60132 27.460295 65.786569 27.015625 66.005859 C 27.015625 66.005859 27.013672 66.007812 27.013672 66.007812 C 26.569693 66.226844 26.106729 66.479474 25.644531 66.771484 C 25.644531 66.771484 25.642578 66.773438 25.642578 66.773438 C 25.411839 66.91928 25.181717 67.073626 24.953125 67.240234 C 24.953125 67.240234 24.951172 67.242188 24.951172 67.242188 C 24.722576 67.408877 24.495426 67.586213 24.273438 67.775391 C 24.273438 67.775391 24.271484 67.777344 24.271484 67.777344 C 24.049508 67.966613 23.831733 68.168305 23.621094 68.382812 C 23.621094 68.382812 23.619141 68.384766 23.619141 68.384766 C 22.986042 69.029467 22.413024 69.792771 21.966797 70.685547 C 21.926817 70.765597 21.8973 70.855323 21.859375 70.9375 C 21.852961 70.951399 21.848151 70.966508 21.841797 70.980469 C 20.501007 69.624011 18 66.559666 18 62.5 C 18 57.260305 22.803612 53.408402 23.535156 52.851562 z M 76.455078 52.851562 C 77.186622 53.408402 81.990234 57.260305 81.990234 62.5 C 81.990234 66.559666 79.489227 69.624011 78.148438 70.980469 C 77.544694 69.653912 76.677933 68.594463 75.716797 67.775391 C 74.384589 66.640093 72.894425 65.925028 71.724609 65.445312 C 71.511726 65.357379 71.342836 65.294221 71.154297 65.220703 L 76.455078 52.851562 z M 45 53.912109 L 45 57.921875 C 44.829197 57.981514 44.656353 58.048501 44.484375 58.113281 C 44.473392 58.117388 44.462158 58.120873 44.451172 58.125 C 43.974642 58.305309 43.490211 58.504746 43 58.722656 L 43 55.361328 C 43.155939 55.240963 43.320876 55.103494 43.474609 54.988281 C 43.652402 54.85436 43.830926 54.716164 44.005859 54.589844 C 44.218473 54.436667 44.428267 54.290218 44.636719 54.148438 C 44.759488 54.064888 44.878746 53.991415 45 53.912109 z M 55 53.912109 C 55.121254 53.991415 55.240512 54.064888 55.363281 54.148438 C 55.571733 54.290218 55.781527 54.436667 55.994141 54.589844 C 56.169074 54.716164 56.347598 54.85436 56.525391 54.988281 C 56.679124 55.103494 56.844061 55.240963 57 55.361328 L 57 58.726562 C 56.860436 58.665176 56.720335 58.601649 56.582031 58.542969 C 56.576036 58.540425 56.570446 58.537695 56.564453 58.535156 C 56.276718 58.413276 55.987485 58.300814 55.703125 58.191406 C 55.566303 58.138872 55.429285 58.088474 55.292969 58.039062 C 55.19561 58.003698 55.097334 57.965402 55 57.931641 L 55 53.912109 z M 42 56.152344 L 42 59.179688 C 41.873171 59.239957 41.730082 59.314782 41.601562 59.376953 C 41.471586 59.439505 41.350386 59.488326 41.21875 59.552734 C 40.854002 59.731202 40.381033 59.967147 40 60.158203 L 40 57.808594 C 40.040662 57.773942 40.086436 57.735647 40.126953 57.701172 C 40.778096 57.14964 41.390673 56.647846 42 56.152344 z M 58 56.152344 C 58.609327 56.647846 59.221904 57.14964 59.873047 57.701172 C 59.913564 57.735647 59.959338 57.773942 60 57.808594 L 60 60.164062 C 59.615626 59.971314 59.139291 59.732691 58.771484 59.552734 C 58.691433 59.513568 58.618488 59.483799 58.539062 59.445312 C 58.364814 59.360338 58.170818 59.262016 58 59.179688 L 58 56.152344 z M 49.996094 58.005859 C 50.114846 58.006007 50.228492 58.018148 50.345703 58.021484 C 50.649909 58.030078 50.952159 58.043028 51.248047 58.074219 C 51.402835 58.08963 51.555964 58.111921 51.708984 58.132812 C 52.01568 58.174857 52.318931 58.226462 52.619141 58.289062 C 52.75245 58.316841 52.886715 58.339359 53.019531 58.371094 C 53.459828 58.476906 53.897184 58.600599 54.337891 58.751953 C 54.33925 58.752404 54.340437 58.753455 54.341797 58.753906 A 0.50005 0.50005 0 0 0 54.345703 58.755859 C 54.758144 58.890534 55.173452 59.049551 55.59375 59.216797 C 55.720397 59.267744 55.846672 59.315412 55.974609 59.369141 C 56.107419 59.424329 56.246372 59.488772 56.380859 59.546875 C 56.93295 59.787851 57.501809 60.05375 58.091797 60.339844 C 58.677007 60.624679 59.269219 60.913614 59.904297 61.232422 C 61.687787 62.129764 63.605897 63.100584 66.015625 64.177734 C 66.21153 64.265399 66.378789 64.34928 66.580078 64.4375 C 66.994526 64.619006 67.430865 64.801043 67.869141 64.984375 C 68.03839 65.055229 68.196133 65.126184 68.369141 65.197266 C 68.626547 65.302906 68.904034 65.409695 69.169922 65.515625 C 69.540472 65.663537 69.90112 65.810531 70.289062 65.958984 A 0.50005 0.50005 0 0 0 70.298828 65.962891 C 70.302805 65.964412 70.306569 65.965276 70.310547 65.966797 A 0.50005 0.50005 0 0 0 70.3125 65.966797 A 0.50005 0.50005 0 0 0 70.345703 65.978516 A 0.50005 0.50005 0 0 0 70.357422 65.982422 C 70.538612 66.051426 70.755625 66.140234 70.964844 66.222656 C 71.107198 66.279131 71.230144 66.325171 71.382812 66.388672 C 71.429829 66.408136 71.483385 66.436842 71.53125 66.457031 C 72.625063 66.920261 73.924441 67.563756 75.074219 68.544922 C 75.677738 69.059937 76.240546 69.661033 76.705078 70.371094 C 76.705875 70.372313 76.706235 70.37378 76.707031 70.375 C 76.861018 70.611086 77.003733 70.85943 77.134766 71.121094 C 77.134766 71.121094 77.134766 71.123047 77.134766 71.123047 C 77.134766 71.123047 77.136719 71.125 77.136719 71.125 C 77.268065 71.387661 77.387788 71.662683 77.492188 71.953125 C 77.553004 72.122168 77.597786 72.307322 77.648438 72.486328 C 77.73932 72.833271 77.817791 73.180564 77.871094 73.529297 C 77.87857 73.578848 77.889758 73.625547 77.896484 73.675781 C 77.896484 73.675781 77.896484 73.677734 77.896484 73.677734 C 77.957175 74.119298 77.990234 74.561214 77.990234 75 C 77.990234 78.270028 76.009499 81.168442 72.966797 82.994141 C 73.604994 82.260241 73.990234 81.419459 73.990234 80.5 C 73.990234 78.907077 72.968702 77.502499 71.367188 76.537109 C 69.914877 75.66166 67.963124 75.114733 65.703125 75.019531 C 65.633592 75.016051 65.571314 75 65.5 75 C 65.4602 75 65.425967 75.010627 65.386719 75.011719 C 65.257405 75.00874 65.131214 75 65 75 C 62.932844 75 61.507178 75.55096 60.861328 75.828125 C 60.675476 73.773876 59.851918 71.497522 58.189453 69.619141 C 56.351894 67.542924 53.589166 66 49.990234 66 C 46.3962 66.002862 43.638171 67.544721 41.804688 69.619141 C 40.143893 71.498176 39.323317 73.775602 39.138672 75.830078 C 38.493981 75.552561 37.073586 75 35 75 C 34.868786 75 34.742603 75.008739 34.613281 75.011719 C 34.574033 75.010627 34.5398 75 34.5 75 C 34.428686 75 34.366408 75.016051 34.296875 75.019531 C 32.036623 75.114758 30.083374 75.661817 28.628906 76.537109 C 27.025012 77.502326 26 78.906473 26 80.5 C 26 81.419459 26.38524 82.260241 27.023438 82.994141 C 23.980735 81.168442 22 78.270028 22 75 C 22 74.558933 22.034111 74.114973 22.095703 73.669922 C 22.101352 73.627853 22.109059 73.588464 22.115234 73.546875 C 22.168704 73.192973 22.249677 72.838876 22.341797 72.486328 C 22.39238 72.307189 22.437302 72.122296 22.498047 71.953125 C 22.917664 70.785736 23.570455 69.85006 24.332031 69.082031 C 24.522039 68.890431 24.71826 68.708945 24.919922 68.537109 C 24.919922 68.537109 24.921875 68.537109 24.921875 68.537109 C 25.123523 68.365341 25.33152 68.203197 25.541016 68.050781 C 25.750492 67.898428 25.964471 67.753604 26.177734 67.619141 C 26.604669 67.350044 27.035401 67.114357 27.453125 66.908203 C 28.279968 66.500262 29.055278 66.205958 29.65625 65.976562 A 0.50005 0.50005 0 0 0 29.71875 65.951172 C 30.364112 65.704037 30.984998 65.458244 31.583984 65.212891 C 31.606879 65.203508 31.627562 65.194926 31.650391 65.185547 C 32.239505 64.94368 32.802247 64.703616 33.349609 64.464844 C 33.354458 64.462725 33.358436 64.461103 33.363281 64.458984 C 33.833095 64.253946 34.23259 64.057321 34.673828 63.855469 C 35.377956 63.533237 36.077419 63.21988 36.716797 62.910156 C 37.802064 62.38762 38.794527 61.886057 39.724609 61.416016 C 40.561821 60.993497 41.314114 60.624685 42.0625 60.263672 C 42.628163 59.991242 43.183273 59.727915 43.714844 59.498047 C 43.777497 59.471035 43.841998 59.440399 43.904297 59.414062 C 44.135536 59.315839 44.362716 59.22784 44.589844 59.138672 C 44.830157 59.045073 45.068448 58.955828 45.304688 58.873047 C 45.456352 58.819534 45.608887 58.763798 45.759766 58.714844 C 46.167199 58.581686 46.573862 58.466587 46.980469 58.369141 C 47.10623 58.339178 47.233175 58.317433 47.359375 58.291016 C 47.679587 58.223879 48.000593 58.168411 48.324219 58.126953 C 48.46112 58.108727 48.598007 58.090015 48.736328 58.076172 C 49.043613 58.0434 49.357547 58.027951 49.673828 58.019531 C 49.781984 58.0167 49.886626 58.005979 49.996094 58.005859 z M 39 58.658203 L 39 60.65625 C 38.347954 60.984969 37.717112 61.298778 37 61.652344 L 37 60.359375 C 37.119402 60.258151 37.227393 60.165076 37.345703 60.064453 C 37.919024 59.576579 38.453816 59.126843 39 58.658203 z M 61 58.658203 C 61.546184 59.126843 62.080976 59.576579 62.654297 60.064453 C 62.772607 60.165076 62.880598 60.258151 63 60.359375 L 63 61.654297 C 62.308329 61.314714 61.628904 60.977824 61 60.660156 L 61 58.658203 z M 36 61.205078 L 36 62.140625 C 35.441685 62.410644 34.822746 62.690916 34.214844 62.96875 C 33.888554 63.117923 33.589619 63.263079 33.248047 63.414062 C 34.11522 62.744647 34.946546 62.071614 35.755859 61.400391 C 35.834502 61.335306 35.921876 61.270056 36 61.205078 z M 64 61.205078 C 64.097941 61.286539 64.207885 61.367596 64.306641 61.449219 C 65.103047 62.10813 65.922333 62.769016 66.773438 63.425781 C 65.7828 62.988481 64.86788 62.560455 64 62.140625 L 64 61.205078 z M 49.990234 67 C 53.306303 67 55.767966 68.390467 57.441406 70.28125 C 59.114847 72.172033 59.971552 74.58082 60 76.507812 A 0.50005 0.50005 0 0 0 60.722656 76.947266 C 60.722656 76.947266 61.55653 76.57042 62.742188 76.291016 C 62.250584 76.92937 62 77.71384 62 78.5 C 62 79.361111 62.285317 80.22894 62.876953 80.894531 C 63.468589 81.560122 64.375 82 65.5 82 C 66.625 82 67.531411 81.560122 68.123047 80.894531 C 68.714683 80.22894 69 79.361111 69 78.5 C 69 77.751761 68.770795 77.006062 68.326172 76.384766 C 69.303391 76.627115 70.156445 76.973563 70.851562 77.392578 C 72.252298 78.236939 72.990234 79.331923 72.990234 80.5 C 72.990234 81.637291 72.145574 82.745219 70.611328 83.597656 C 69.202983 84.380142 67.251024 84.901106 65.076172 84.982422 C 61.045602 84.896171 58.844135 83.616385 56.755859 82.347656 C 57.482682 82.047128 58 81.331025 58 80.5 L 58 77 C 58 75.901469 57.098531 75 56 75 C 55.611074 75 55.308264 75.221285 55 75.416016 L 55 73.001953 C 55 71.902074 54.098531 71 53 71 C 52.634408 71 52.295903 71.107431 52 71.28125 L 52 71 C 52 69.901469 51.098531 69 50 69 C 48.901469 69 48 69.901469 48 71 L 48 71.416016 C 47.691736 71.221285 47.388926 71 47 71 C 45.901469 71 45 71.901469 45 73 L 45 75.28125 C 44.704097 75.107645 44.365458 75 44 75 C 42.901469 75 42 75.901469 42 77 L 42 80.5 C 42 81.328866 42.514441 82.043793 43.238281 82.345703 C 41.147973 83.616072 38.946992 84.89612 34.914062 84.982422 C 32.739211 84.901106 30.787251 84.380142 29.378906 83.597656 C 27.844661 82.745219 27 81.637291 27 80.5 C 27 79.332527 27.741175 78.237112 29.144531 77.392578 C 29.840962 76.973469 30.695936 76.627095 31.673828 76.384766 C 31.229205 77.006062 31 77.751761 31 78.5 C 31 79.361111 31.285317 80.22894 31.876953 80.894531 C 32.468589 81.560122 33.375 82 34.5 82 C 35.625 82 36.531411 81.560122 37.123047 80.894531 C 37.714683 80.22894 38 79.361111 38 78.5 C 38 77.71384 37.749416 76.92937 37.257812 76.291016 C 38.44524 76.570484 39.277344 76.947266 39.277344 76.947266 A 0.50005 0.50005 0 0 0 40 76.507812 C 40.02799 74.580516 40.883626 72.171902 42.554688 70.28125 C 44.224058 68.392511 46.679256 67.00281 49.990234 67 z M 50 70 C 50.557469 70 51 70.442531 51 71 L 51 73.001953 L 51 81.998047 L 51 82 C 51 82.557469 50.557469 83 50 83 C 49.442531 83 49 82.557469 49 82 L 49 73 L 49 71 C 49 70.442531 49.442531 70 50 70 z M 47 72 C 47.557469 72 48 72.442531 48 73 L 48 82 C 48 82.557469 47.557469 83 47 83 C 46.442531 83 46 82.557469 46 82 L 46 73 C 46 72.442531 46.442531 72 47 72 z M 53 72 C 53.557469 72 54 72.441833 54 73.001953 L 54 77 L 54 80.5 L 54 81.998047 C 54 82.556842 53.557066 83 53 83 C 52.443198 83 52.001057 82.557214 52 81.998047 L 52 73.001953 C 52 72.443158 52.442934 72 53 72 z M 44 76 C 44.557469 76 45 76.442531 45 77 L 45 80.5 C 45 81.057469 44.557469 81.5 44 81.5 C 43.442531 81.5 43 81.057469 43 80.5 L 43 77 C 43 76.442531 43.442531 76 44 76 z M 56 76 C 56.557469 76 57 76.442531 57 77 L 57 80.5 C 57 81.057469 56.557469 81.5 56 81.5 C 55.442531 81.5 55 81.057469 55 80.5 L 55 77 C 55 76.442531 55.442531 76 56 76 z M 34.621094 76.011719 C 35.425799 76.040814 35.98902 76.333106 36.376953 76.769531 C 36.785317 77.22894 37 77.861111 37 78.5 C 37 79.138889 36.785317 79.77106 36.376953 80.230469 C 35.96859 80.689878 35.375 81 34.5 81 C 33.625 81 33.03141 80.689878 32.623047 80.230469 C 32.214683 79.77106 32 79.138889 32 78.5 C 32 77.861111 32.214683 77.22894 32.623047 76.769531 C 32.992213 76.354219 33.524602 76.073965 34.267578 76.021484 C 34.38376 76.015978 34.502975 76.014601 34.621094 76.011719 z M 65.378906 76.011719 C 65.497018 76.014602 65.616253 76.015977 65.732422 76.021484 C 66.475398 76.073965 67.007787 76.354219 67.376953 76.769531 C 67.785317 77.22894 68 77.861111 68 78.5 C 68 79.138889 67.785317 79.77106 67.376953 80.230469 C 66.96859 80.689878 66.375 81 65.5 81 C 64.625 81 64.03141 80.689878 63.623047 80.230469 C 63.214683 79.77106 63 79.138889 63 78.5 C 63 77.861111 63.214683 77.22894 63.623047 76.769531 C 64.01098 76.333106 64.574201 76.040814 65.378906 76.011719 z"/></svg>